:SAMPLES-PER-SECOND 30
:FULLY-SPECIFIED
:DEGREES
381
root  2.23781 38.7981 9.86291 179.485 2.84799 175.493
RightUpLeg  -10.2178 1.48637 -12.8188
RightLeg  24.7456 -11.9054 -6.1515
RightFoot  -8.24756 -0.510683 16.8177
RightToes  -1.74624e-010 0 -3.6325e-017
Spine  6.05583 -2.8545 -1.74164
Spine1  22.7083 -4.33181 3.37135
HEad  -7.58302 13.5748 -7.36962
LeftShoulder1  0.794077 -0.0645259 -15.4256
LeftArm  18.3446 14.1609 -63.1509
LeftForeArm  113.103 -78.298 -118.37
LeftHand  -2.20018 -3.8057 27.573
RightShoulder  0.412441 -1.30988 11.8088
RightArm  7.19083 -17.7456 57.1032
RightForeArm  148.99 64.0024 157.638
RightHand  -1.40618 5.48892 -15.22
LeftUpLeg  -10.9919 -5.13186 9.95641
LeftLeg  29.2134 4.58658 3.11844
LeftFoot  -4.36331 0.607262 -9.37484
LeftToes  3.7286e-011 -1.5702e-010 -9.70233e-012
382
root  1.14172 39.0812 9.80145 -179.009 5.16206 175.586
RightUpLeg  -10.8895 1.38166 -14.5988
RightLeg  20.5679 -10.1493 -4.53698
RightFoot  -4.1926 -1.12451 17.4404
RightToes  -1.74624e-010 0 -3.6325e-017
Spine  5.40883 -2.1933 -1.68151
Spine1  21.6111 -3.53065 3.15606
HEad  -7.96114 13.6214 -7.95736
LeftShoulder1  0.804142 -0.148586 -15.1739
LeftArm  20.6176 15.129 -61.8924
LeftForeArm  119.647 -77.6838 -123.846
LeftHand  -2.1049 -4.15849 25.4888
RightShoulder  0.42293 -1.22217 11.5186
RightArm  7.56083 -19.9634 57.0231
RightForeArm  149.288 63.0307 158.545
RightHand  -1.30553 5.28813 -14.4206
LeftUpLeg  -10.6738 -4.89742 10.4907
LeftLeg  24.1389 3.92276 2.26779
LeftFoot  -1.39576 1.15095 -13.0442
LeftToes  3.7286e-011 -1.5702e-010 -9.70233e-012
383
root  0.00807581 39.0864 9.76653 -177.911 8.03621 175.713
RightUpLeg  -12.3219 0.857717 -16.2275
RightLeg  18.2374 -7.51563 -3.49134
RightFoot  -1.79997 -1.54804 18.2555
RightToes  -1.74624e-010 0 -3.6325e-017
Spine  5.21412 -1.53201 -2.10192
Spine1  20.6317 -2.8005 3.07148
HEad  -8.78827 14.3023 -8.24264
LeftShoulder1  0.84129 -0.43653 -14.4452
LeftArm  21.9953 16.2134 -60.8784
LeftForeArm  125.22 -76.9612 -128.694
LeftHand  -1.97483 -4.25132 23.7641
RightShoulder  0.476047 -0.887373 11.1069
RightArm  8.13325 -20.4706 56.7109
RightForeArm  149.077 62.8418 158.684
RightHand  -1.26134 5.18972 -14.0716
LeftUpLeg  -10.2548 -5.54688 10.7093
LeftLeg  21.5436 1.3796 0.919816
LeftFoot  -1.56347 1.55587 -18.1756
LeftToes  3.7286e-011 -1.5702e-010 -9.70233e-012
384
root  -1.14355 38.7989 9.78713 -177.922 10.7944 175.452
RightUpLeg  -13.7787 2.03021 -18.4802
RightLeg  18.2627 -6.83435 -2.97192
RightFoot  -1.85927 -1.68698 20.0392
RightToes  -1.74624e-010 0 -3.6325e-017
Spine  5.94702 -1.27717 -3.18123
Spine1  20.033 -2.38398 2.33272
HEad  -9.67295 15.4845 -8.06171
LeftShoulder1  0.857607 -0.642626 -13.7087
LeftArm  23.2115 16.606 -59.4236
LeftForeArm  127.241 -76.1752 -132.316
LeftHand  -1.96922 -4.14339 23.9508
RightShoulder  0.523382 -0.593629 10.8574
RightArm  8.93783 -18.9946 56.5645
RightForeArm  148.773 63.3027 158.25
RightHand  -1.30601 5.25334 -14.4691
LeftUpLeg  -9.921 -4.99028 9.59789
LeftLeg  22.4413 -1.74006 -0.47057
LeftFoot  -6.24703 0.962173 -20.2633
LeftToes  3.7286e-011 -1.5702e-010 -9.70233e-012
385
root  -2.30246 38.3143 9.88386 -179.168 13.4104 174.724
RightUpLeg  -15.3857 2.32724 -20.9197
RightLeg  20.7472 -6.66296 -2.96726
RightFoot  -3.48357 -1.42637 20.1621
RightToes  -1.74624e-010 0 -3.6325e-017
Spine  7.40776 -1.24121 -4.29248
Spine1  20.29 -1.9525 0.588501
HEad  -10.993 16.5449 -7.97988
LeftShoulder1  0.866278 -0.740112 -13.4143
LeftArm  24.5954 14.949 -57.2154
LeftForeArm  123.431 -76.2581 -131.106
LeftHand  -2.10133 -4.02976 25.7796
RightShoulder  0.538771 -0.472801 10.618
RightArm  9.23918 -16.4657 57.239
RightForeArm  148.634 63.8685 157.726
RightHand  -1.37921 5.37677 -15.0885
LeftUpLeg  -9.61087 -2.39294 7.06653
LeftLeg  25.6297 -2.82718 -1.12005
LeftFoot  -12.6865 -0.117765 -17.6345
LeftToes  3.7286e-011 -1.5702e-010 -9.70233e-012
386
root  -3.43004 37.7837 10.0432 179.078 15.8772 173.997
RightUpLeg  -17.455 1.85326 -22.7746
RightLeg  24.8798 -7.01161 -3.76862
RightFoot  -5.28312 -0.937166 16.8453
RightToes  -1.74624e-010 0 -3.6325e-017
Spine  8.84166 -0.993374 -4.95091
Spine1  21.5075 -1.32134 -0.937328
HEad  -12.8978 16.9707 -8.21701
LeftShoulder1  0.933925 -1.07388 -13.4064
LeftArm  25.5932 11.2021 -55.1825
LeftForeArm  112.566 -77.6421 -121.925
LeftHand  -2.25126 -3.80013 28.2018
RightShoulder  0.528227 -0.495319 10.375
RightArm  8.61746 -14.1711 58.61
RightForeArm  148.701 64.1559 157.465
RightHand  -1.4333 5.49048 -15.5049
LeftUpLeg  -9.61411 0.837249 4.42109
LeftLeg  29.4431 -1.79549 -0.735256
LeftFoot  -17.8203 -0.675923 -13.6243
LeftToes  3.7286e-011 -1.5702e-010 -9.70233e-012
387
root  -4.38039 37.3553 10.2177 177.743 17.7196 173.476
RightUpLeg  -19.7178 2.536 -23.9928
RightLeg  29.1999 -8.22352 -5.17122
RightFoot  -6.77687 -0.560769 12.9222
RightToes  -1.74624e-010 0 -3.6325e-017
Spine  9.61016 -0.569147 -5.96282
Spine1  23.1161 -0.901396 -1.29395
HEad  -14.608 17.0561 -8.45886
LeftShoulder1  1.08401 -1.80128 -13.4438
LeftArm  25.4253 7.26328 -54.1184
LeftForeArm  96.3253 -78.9868 -106.689
LeftHand  -2.29873 -3.34018 30.201
RightShoulder  0.519552 -0.559776 10.4793
RightArm  7.67967 -12.6688 59.9461
RightForeArm  148.776 64.3796 157.26
RightHand  -1.4721 5.57115 -15.7991
LeftUpLeg  -10.2738 3.53158 2.65486
LeftLeg  32.9095 -1.44772 -0.654618
LeftFoot  -20.7333 -0.841679 -11.6635
LeftToes  3.7286e-011 -1.5702e-010 -9.70233e-012
388
root  -5.0836 37.1636 10.3526 177.267 18.3242 173.316
RightUpLeg  -21.1547 3.45122 -24.2863
RightLeg  32.1428 -8.40775 -5.8814
RightFoot  -7.84486 -0.428991 12.3431
RightToes  -1.74624e-010 0 -3.6325e-017
Spine  9.70688 -0.483651 -7.54939
Spine1  24.3279 -1.26575 -0.679161
HEad  -15.2123 17.4828 -8.49321
LeftShoulder1  1.23642 -2.47941 -13.7014
LeftArm  23.6482 4.94525 -53.9152
LeftForeArm  84.3537 -79.3389 -95.8554
LeftHand  -2.25617 -2.94128 31.0062
RightShoulder  0.533777 -0.566416 11.0663
RightArm  7.37649 -12.042 60.8662
RightForeArm  148.951 64.8702 156.801
RightHand  -1.49972 5.61747 -16.0213
LeftUpLeg  -11.3118 5.40719 1.81357
LeftLeg  35.1497 -2.79859 -1.73386
LeftFoot  -21.763 -0.879923 -11.0459
LeftToes  3.7286e-011 -1.5702e-010 -9.70233e-012
389
root  -5.58452 37.3097 10.4389 177.538 17.7192 173.639
RightUpLeg  -21.1269 2.71374 -23.1938
RightLeg  33.0824 -6.85483 -5.03032
RightFoot  -8.14332 -0.470008 14.7032
RightToes  -1.74624e-010 0 -3.6325e-017
Spine  9.62162 -0.964234 -8.87293
Spine1  24.8161 -2.33624 0.240531
HEad  -14.7344 18.292 -8.37161
LeftShoulder1  1.27469 -2.51259 -14.2846
LeftArm  20.7871 4.11738 -54.4757
LeftForeArm  82.3999 -79.3143 -94.6828
LeftHand  -2.20725 -2.87667 30.5963
RightShoulder  0.560465 -0.521086 11.7593
RightArm  7.92819 -12.5784 61.4537
RightForeArm  149.621 65.3156 156.429
RightHand  -1.51166 5.66925 -16.0724
LeftUpLeg  -11.965 6.12851 1.40142
LeftLeg  35.0416 -3.85634 -2.52253
LeftFoot  -20.9135 -0.712733 -9.95654
LeftToes  3.7286e-011 -1.5702e-010 -9.70233e-012
390
root  -5.97173 37.7676 10.5202 178.305 16.7792 174.472
RightUpLeg  -20.1661 0.168518 -20.5928
RightLeg  32.7159 -5.23258 -3.85302
RightFoot  -7.61656 -0.602738 16.8268
RightToes  -1.74624e-010 0 -3.6325e-017
Spine  9.64736 -1.5664 -9.06394
Spine1  24.7678 -3.36505 1.11804
HEad  -13.9848 18.9444 -8.1606
LeftShoulder1  1.16564 -1.87902 -14.7853
LeftArm  17.9847 3.65099 -56.0552
LeftForeArm  85.4862 -79.2781 -97.4145
LeftHand  -2.18457 -3.05216 29.7016
RightShoulder  0.581218 -0.465907 12.1396
RightArm  8.77135 -14.3779 61.7447
RightForeArm  150.613 65.1247 156.726
RightHand  -1.51483 5.72711 -16.0249
LeftUpLeg  -11.9613 5.4072 1.25504
LeftLeg  32.5558 -3.18978 -1.83748
LeftFoot  -18.2623 -0.42612 -8.84488
LeftToes  3.7286e-011 -1.5702e-010 -9.70233e-012
391
root  -6.26819 38.3827 10.623 179.373 16.4848 175.554
RightUpLeg  -19.2219 -2.57703 -17.1054
RightLeg  32.0818 -5.34302 -3.83789
RightFoot  -7.06718 -0.703983 17.4543
RightToes  -1.74624e-010 0 -3.6325e-017
Spine  9.58271 -1.76925 -8.4039
Spine1  24.431 -3.75421 1.87764
HEad  -13.5317 19.2742 -7.89622
LeftShoulder1  1.00449 -1.12662 -14.8186
LeftArm  15.7572 3.23793 -58.3782
LeftForeArm  88.5792 -79.2762 -99.3814
LeftHand  -2.1915 -3.278 29.0536
RightShoulder  0.603651 -0.354749 12.1771
RightArm  9.45622 -16.6979 61.6744
RightForeArm  151.076 64.3718 157.509
RightHand  -1.50144 5.68647 -15.9434
LeftUpLeg  -11.6253 3.94397 1.50698
LeftLeg  28.9491 -1.55611 -0.577982
LeftFoot  -14.4971 -0.155692 -8.91209
LeftToes  3.7286e-011 -1.5702e-010 -9.70233e-012
392
root  -6.45644 38.9594 10.7325 -179.559 17.2066 176.252
RightUpLeg  -18.6541 -4.29027 -13.8643
RightLeg  31.6811 -6.64745 -4.64519
RightFoot  -6.80046 -0.758513 17.8147
RightToes  -1.74624e-010 0 -3.6325e-017
Spine  9.18106 -1.51897 -8.08387
Spine1  23.9507 -3.5292 2.35656
HEad  -13.2398 19.698 -7.60742
LeftShoulder1  0.893607 -0.668515 -14.5188
LeftArm  13.9252 3.25246 -60.3792
LeftForeArm  91.4648 -79.2496 -101.379
LeftHand  -2.22604 -3.51542 28.7424
RightShoulder  0.640651 -0.139953 12.0317
RightArm  10.0741 -18.383 61.4235
RightForeArm  150.761 63.7345 158.068
RightHand  -1.45104 5.50194 -15.6737
LeftUpLeg  -11.3284 3.31155 1.81057
LeftLeg  25.5721 -0.380261 0.15294
LeftFoot  -10.6122 0.126398 -9.83382
LeftToes  3.7286e-011 -1.5702e-010 -9.70233e-012
393
root  -6.55752 39.3577 10.8356 -178.868 18.6417 176.232
RightUpLeg  -18.1542 -5.38962 -11.5397
RightLeg  31.699 -7.25129 -5.04348
RightFoot  -5.85707 -0.932445 18.4691
RightToes  -1.74624e-010 0 -3.6325e-017
Spine  8.53595 -1.12377 -8.62578
Spine1  23.5079 -3.04968 2.37461
HEad  -12.8122 20.5315 -7.25438
LeftShoulder1  0.834428 -0.449353 -14.1773
LeftArm  12.439 3.62516 -61.2503
LeftForeArm  94.4236 -79.163 -103.941
LeftHand  -2.25523 -3.72706 28.4591
RightShoulder  0.674273 0.0799818 11.7668
RightArm  10.8196 -18.7929 61.3452
RightForeArm  150.431 63.5926 158.161
RightHand  -1.389 5.32964 -15.2565
LeftUpLeg  -11.155 4.21827 1.71581
LeftLeg  23.2009 -0.0768272 0.306756
LeftFoot  -7.44715 0.403039 -10.5543
LeftToes  3.7286e-011 -1.5702e-010 -9.70233e-012
